<svg width="291" height="368" viewBox="0 0 291 368" fill="none" xmlns="http://www.w3.org/2000/svg">
<path d="M270.072 205.33C283.312 196.44 292.82 180.643 290.63 164.824C278.768 177.486 262.818 185.536 245.603 187.548C238.96 188.3 231.495 188.444 226.832 193.243C223.931 196.23 222.738 200.555 222.727 204.723C222.716 208.89 223.767 212.979 224.812 217.013L224.581 218.027C240.499 217.233 256.831 214.22 270.072 205.33Z" fill="#F0F0F0"/>
<path d="M290.296 164.829C285.457 177.126 276.875 187.584 265.768 194.716C263.404 196.294 260.806 197.488 258.071 198.256C255.382 198.917 252.566 198.845 249.915 198.047C247.428 197.352 244.964 196.353 242.352 196.277C241.014 196.257 239.688 196.522 238.459 197.052C237.23 197.583 236.128 198.367 235.223 199.355C232.905 201.757 231.586 204.85 230.401 207.92C229.086 211.328 227.774 214.889 225.039 217.436C224.708 217.745 225.205 218.242 225.536 217.934C230.294 213.503 230.734 206.485 234.454 201.367C236.189 198.979 238.653 197.1 241.694 196.983C244.353 196.881 246.894 197.909 249.406 198.634C251.981 199.45 254.717 199.623 257.374 199.136C260.139 198.51 262.778 197.418 265.178 195.905C270.634 192.586 275.536 188.428 279.703 183.584C284.49 178.081 288.303 171.798 290.975 165.007C291.14 164.587 290.46 164.411 290.296 164.829L290.296 164.829Z" fill="white"/>
<path d="M269.478 192.623C270.926 194.328 272.93 195.461 275.135 195.822C277.339 196.182 279.6 195.746 281.513 194.59C281.899 194.355 281.553 193.743 281.166 193.978C279.387 195.058 277.281 195.464 275.229 195.124C273.177 194.784 271.313 193.72 269.975 192.125C269.684 191.778 269.189 192.278 269.478 192.623Z" fill="white"/>
<path d="M251.129 198.565C251.456 194.001 253.488 189.729 256.818 186.599C257.149 186.289 256.652 185.792 256.322 186.102C252.861 189.365 250.756 193.815 250.427 198.565C250.396 199.017 251.098 199.015 251.129 198.565L251.129 198.565Z" fill="white"/>
<path d="M283.602 177.794C282.905 177.252 282.353 176.544 281.997 175.735C281.64 174.925 281.489 174.04 281.559 173.158C281.595 172.706 280.893 172.709 280.856 173.158C280.784 174.133 280.952 175.111 281.344 176.005C281.736 176.9 282.341 177.685 283.105 178.292C283.173 178.355 283.262 178.391 283.354 178.39C283.446 178.39 283.535 178.355 283.602 178.292C283.668 178.226 283.704 178.136 283.704 178.043C283.704 177.95 283.668 177.86 283.602 177.794H283.602Z" fill="white"/>
<path d="M244.711 136.414C244.68 136.696 244.649 136.977 244.613 137.262C244.176 141.046 243.434 144.789 242.392 148.453C242.316 148.738 242.235 149.025 242.151 149.307C239.548 158.107 235.338 166.347 229.733 173.607C227.5 176.494 225.051 179.207 222.408 181.722C218.757 185.194 214.522 188.668 212.295 193.019C212.057 193.47 211.848 193.936 211.668 194.413L223.358 217.667C223.411 217.706 223.459 217.748 223.512 217.788L223.937 218.738C224.082 218.618 224.23 218.49 224.375 218.37C224.46 218.301 224.542 218.226 224.627 218.157C224.682 218.109 224.738 218.061 224.791 218.021C224.809 218.005 224.828 217.989 224.841 217.976C224.894 217.936 224.939 217.893 224.986 217.855C225.817 217.144 226.644 216.425 227.467 215.699C227.472 215.696 227.472 215.696 227.475 215.688C233.734 210.141 239.586 204.021 244.325 197.206C244.467 197.001 244.615 196.793 244.752 196.577C246.871 193.493 248.735 190.241 250.326 186.853C251.19 184.995 251.961 183.094 252.634 181.158C254.363 176.152 255.296 170.905 255.398 165.608C255.6 155.05 252.429 144.544 245.264 136.986C245.081 136.793 244.9 136.605 244.711 136.414Z" fill="#F0F0F0"/>
<path d="M244.445 136.614C247.971 149.352 247.402 162.879 242.819 175.274C241.88 177.96 240.523 180.481 238.801 182.744C237.051 184.894 234.759 186.535 232.163 187.498C229.76 188.444 227.193 189.132 225.061 190.647C223.981 191.439 223.081 192.45 222.419 193.615C221.756 194.779 221.347 196.071 221.218 197.406C220.81 200.722 221.616 203.987 222.515 207.153C223.513 210.668 224.605 214.303 223.951 217.987C223.872 218.433 224.568 218.53 224.647 218.084C225.783 211.675 221.918 205.807 221.813 199.476C221.764 196.522 222.603 193.536 224.96 191.608C227.021 189.922 229.668 189.21 232.109 188.273C234.656 187.372 236.944 185.859 238.773 183.867C240.605 181.7 242.056 179.236 243.063 176.58C245.425 170.638 246.841 164.361 247.257 157.979C247.773 150.697 247.042 143.381 245.095 136.346C244.975 135.911 244.326 136.181 244.445 136.614L244.445 136.614Z" fill="white"/>
<path d="M244.531 171.369C246.711 171.857 248.993 171.553 250.97 170.511C252.946 169.468 254.489 167.756 255.322 165.68C255.489 165.259 254.845 164.979 254.677 165.4C253.905 167.335 252.468 168.93 250.625 169.897C248.782 170.863 246.655 171.138 244.628 170.672C244.188 170.571 244.093 171.268 244.531 171.369V171.369Z" fill="white"/>
<path d="M233.446 187.182C230.965 183.341 230.019 178.704 230.799 174.196C230.876 173.75 230.181 173.652 230.103 174.098C229.301 178.791 230.294 183.615 232.885 187.606C233.132 187.986 233.691 187.56 233.446 187.182V187.182Z" fill="white"/>
<path d="M246.896 151.006C246.014 150.993 245.148 150.761 244.377 150.33C243.606 149.899 242.954 149.283 242.479 148.537C242.237 148.154 241.678 148.58 241.918 148.961C242.447 149.782 243.168 150.462 244.018 150.94C244.869 151.418 245.824 151.68 246.799 151.703C246.891 151.713 246.983 151.687 247.056 151.632C247.13 151.576 247.18 151.494 247.195 151.403C247.208 151.311 247.183 151.217 247.127 151.143C247.071 151.068 246.988 151.019 246.896 151.006H246.896Z" fill="white"/>
<path d="M0.17222 235.201C1.14954 224.927 7.19235 214.659 16.8405 211.047C13.2997 221.694 13.6316 233.254 17.7776 243.68C19.391 247.695 21.6028 251.992 20.3116 256.123C19.5082 258.693 17.4204 260.701 15.0591 261.988C12.6977 263.274 10.055 263.931 7.44517 264.575L6.94063 265.018C2.50157 255.706 -0.805107 245.475 0.17222 235.201Z" fill="#F0F0F0"/>
<path d="M16.9445 211.242C11.4528 217.776 8.15522 225.878 7.52025 234.396C7.35107 236.228 7.47103 238.074 7.87574 239.868C8.32634 241.603 9.23236 243.185 10.4996 244.451C11.6576 245.654 12.9811 246.751 13.8269 248.216C14.2488 248.972 14.5063 249.809 14.5827 250.672C14.6591 251.535 14.5526 252.404 14.2702 253.223C13.6194 255.281 12.2693 256.983 10.8913 258.6C9.36132 260.397 7.74374 262.238 7.13855 264.579C7.06522 264.862 6.63037 264.732 6.70359 264.449C7.75652 260.376 11.6031 257.97 13.3648 254.279C14.1867 252.557 14.4957 250.576 13.6282 248.808C12.8697 247.261 11.5058 246.129 10.3228 244.921C9.06848 243.705 8.13043 242.199 7.59061 240.536C7.09604 238.768 6.90527 236.929 7.02645 235.098C7.23364 230.97 8.08729 226.9 9.55615 223.037C11.2082 218.62 13.6021 214.518 16.6345 210.91C16.8223 210.686 17.1311 211.02 16.9445 211.242V211.242Z" fill="white"/>
<path d="M7.566 231.635C6.15411 231.334 4.89489 230.54 4.01321 229.395C3.13154 228.25 2.68483 226.828 2.75286 225.383C2.75617 225.324 2.78217 225.269 2.82538 225.229C2.86859 225.188 2.92563 225.167 2.98449 225.168C3.04335 225.169 3.09941 225.193 3.14089 225.235C3.18236 225.277 3.206 225.333 3.20681 225.392C3.14099 226.738 3.55723 228.062 4.38043 229.127C5.20362 230.192 6.37953 230.926 7.69592 231.199C7.98192 231.258 7.85038 231.694 7.56602 231.635H7.566Z" fill="white"/>
<path d="M9.82755 243.915C12.3166 242.327 14.1168 239.857 14.8693 236.998C14.9436 236.715 15.3785 236.845 15.3043 237.128C14.5156 240.102 12.637 242.668 10.0432 244.315C9.79592 244.472 9.58155 244.07 9.82754 243.915H9.82755Z" fill="white"/>
<path d="M11.6379 219.031C12.1599 219.262 12.731 219.358 13.2997 219.313C13.8684 219.268 14.417 219.082 14.8961 218.771C15.1413 218.611 15.3554 219.013 15.1118 219.172C14.5808 219.512 13.9748 219.717 13.3465 219.768C12.7183 219.82 12.0871 219.716 11.508 219.467C11.4514 219.448 11.4042 219.408 11.3758 219.356C11.3475 219.303 11.3402 219.242 11.3554 219.184C11.3729 219.126 11.4124 219.078 11.4653 219.049C11.5182 219.021 11.5802 219.014 11.6379 219.031V219.031Z" fill="white"/>
<path d="M45.1131 228.481C44.9628 228.585 44.8125 228.689 44.6621 228.797C42.6482 230.207 42.7057 231.782 40.9459 233.5C40.8078 233.63 40.6698 233.765 40.5357 233.899C36.3417 238.085 32.9597 243.015 30.5616 248.438C29.6094 250.597 28.8224 252.826 28.2075 255.104C27.3586 258.251 26.6879 261.73 24.9036 264.336C24.7205 264.61 24.5207 264.872 24.3052 265.121L7.52004 265.604C7.48134 265.586 7.44256 265.571 7.40368 265.553L6.73438 265.603C6.75789 265.484 6.78486 265.36 6.80838 265.24C6.82174 265.171 6.83882 265.101 6.85218 265.031C6.86227 264.985 6.87255 264.939 6.87903 264.896C6.88232 264.881 6.88582 264.865 6.88923 264.854C6.89568 264.811 6.90617 264.773 6.91274 264.734C7.06154 264.042 7.21546 263.35 7.37449 262.658C7.37438 262.655 7.37438 262.655 7.37801 262.651C8.53944 257.366 10.3224 252.238 12.6896 247.374C12.7622 247.23 12.8345 247.082 12.9147 246.937C14.0137 244.783 15.2865 242.722 16.7205 240.775C17.5092 239.712 18.351 238.689 19.2429 237.711C21.5521 235.188 24.2431 233.045 27.217 231.36C33.146 228.002 38.129 226.581 44.6186 228.341C44.7845 228.387 44.947 228.432 45.1131 228.481Z" fill="#F0F0F0"/>
<path d="M45.0781 228.693C36.8543 230.574 31.1288 235.1 25.593 241.495C24.3574 242.855 23.3436 244.402 22.5888 246.079C21.9062 247.736 21.6789 249.546 21.9305 251.32C22.1319 252.98 22.5297 254.654 22.325 256.334C22.2075 257.192 21.9102 258.016 21.4527 258.751C20.9952 259.486 20.3878 260.116 19.6704 260.599C17.9139 261.85 15.8137 262.394 13.7414 262.854C11.4404 263.366 9.04244 263.86 7.15292 265.364C6.92398 265.546 6.65525 265.179 6.88384 264.997C10.1713 262.381 14.6885 262.781 18.3128 260.896C20.0039 260.017 21.4409 258.622 21.8107 256.686C22.134 254.994 21.7253 253.268 21.5069 251.589C21.2361 249.861 21.3917 248.093 21.96 246.44C22.6272 244.73 23.5798 243.147 24.7772 241.757C27.423 238.586 30.5499 235.852 34.0435 233.654C38.0132 231.126 40.4451 229.29 45.0303 228.241C45.3144 228.176 45.3603 228.629 45.0781 228.693V228.693Z" fill="white"/>
<path d="M27.2842 239.322C26.3376 238.23 25.8092 236.836 25.7933 235.39C25.7775 233.944 26.2752 232.539 27.1976 231.426C27.385 231.202 27.7419 231.483 27.5542 231.708C26.6934 232.742 26.2299 234.051 26.2474 235.398C26.2649 236.744 26.7623 238.04 27.6498 239.052C27.8424 239.272 27.4757 239.54 27.2842 239.322V239.322Z" fill="white"/>
<path d="M21.7202 250.495C24.6617 250.728 27.583 249.843 29.9016 248.014C30.1312 247.833 30.4 248.199 30.1707 248.38C27.7543 250.279 24.7124 251.194 21.6519 250.944C21.3602 250.92 21.4301 250.471 21.7202 250.495H21.7202Z" fill="white"/>
<path d="M38.1139 231.721C38.3923 232.22 38.79 232.642 39.2714 232.949C39.7527 233.256 40.3025 233.438 40.8715 233.479C41.1634 233.5 41.0932 233.949 40.8033 233.929C40.1749 233.88 39.5678 233.678 39.0353 233.34C38.5028 233.003 38.0609 232.539 37.7483 231.991C37.7146 231.941 37.7007 231.881 37.7097 231.822C37.7187 231.763 37.7497 231.71 37.7966 231.673C37.8452 231.637 37.9058 231.622 37.9652 231.632C38.0246 231.641 38.0781 231.673 38.1139 231.721V231.721Z" fill="white"/>
<path d="M209.566 0.980484H198.085C198.613 2.27762 198.814 3.68496 198.672 5.07853C198.529 6.47211 198.047 7.80914 197.267 8.97185C196.487 10.1346 195.434 11.0873 194.2 11.746C192.966 12.4048 191.589 12.7494 190.191 12.7495H139.8C138.402 12.7494 137.026 12.4048 135.792 11.746C134.558 11.0873 133.505 10.1346 132.725 8.97186C131.945 7.80914 131.463 6.4721 131.32 5.07853C131.177 3.68495 131.379 2.2776 131.907 0.980469H121.183C116.424 0.980465 111.859 2.87487 108.494 6.24695C105.129 9.61903 103.238 14.1925 103.238 18.9614V246.854C103.238 249.216 103.702 251.554 104.604 253.735C105.506 255.917 106.828 257.899 108.494 259.569C110.16 261.238 112.139 262.563 114.316 263.467C116.493 264.37 118.826 264.835 121.183 264.835H209.566C211.923 264.835 214.256 264.37 216.434 263.467C218.611 262.563 220.589 261.238 222.255 259.569C223.922 257.899 225.243 255.917 226.145 253.735C227.047 251.554 227.511 249.216 227.511 246.854V18.9614C227.511 16.6001 227.047 14.2619 226.145 12.0804C225.243 9.89885 223.922 7.91665 222.255 6.24697C220.589 4.57728 218.611 3.25282 216.434 2.34919C214.256 1.44557 211.923 0.98048 209.566 0.980484Z" fill="white"/>
<path d="M209.566 265.81H121.182C116.166 265.805 111.357 263.805 107.81 260.251C104.263 256.697 102.267 251.878 102.262 246.852V18.9588C102.267 13.9324 104.263 9.11348 107.81 5.55926C111.357 2.00503 116.166 0.00574303 121.182 0H133.358L132.81 1.34719C132.342 2.49584 132.164 3.74209 132.29 4.97615C132.416 6.21021 132.844 7.3942 133.534 8.42383C134.225 9.45345 135.157 10.2971 136.25 10.8804C137.343 11.4638 138.562 11.769 139.8 11.769H190.191C191.429 11.7689 192.648 11.4637 193.74 10.8803C194.833 10.2969 195.765 9.45327 196.456 8.42368C197.147 7.39408 197.574 6.21013 197.7 4.9761C197.827 3.74208 197.648 2.49585 197.181 1.34719L196.632 0H209.566C214.582 0.0057017 219.391 2.00497 222.938 5.55921C226.486 9.11345 228.481 13.9324 228.486 18.9588V246.852C228.481 251.878 226.485 256.697 222.938 260.251C219.391 263.806 214.582 265.805 209.566 265.81V265.81ZM121.182 1.95573C116.683 1.96088 112.37 3.75392 109.189 6.94151C106.008 10.1291 104.219 14.4509 104.213 18.9588V246.852C104.219 251.36 106.008 255.681 109.189 258.869C112.37 262.057 116.683 263.85 121.182 263.855H209.566C214.065 263.85 218.378 262.057 221.559 258.869C224.74 255.682 226.53 251.36 226.535 246.852V18.9589C226.53 14.4509 224.74 10.1291 221.559 6.94149C218.378 3.7539 214.065 1.96087 209.566 1.95576H199.424C199.763 3.35654 199.781 4.81632 199.476 6.22499C199.17 7.63366 198.55 8.95445 197.66 10.0877C196.771 11.221 195.637 12.1373 194.343 12.7673C193.049 13.3973 191.629 13.7247 190.191 13.7248H139.8C138.361 13.7242 136.942 13.3965 135.648 12.7663C134.354 12.1361 133.22 11.2199 132.331 10.0867C131.442 8.95356 130.822 7.63299 130.516 6.22453C130.21 4.81608 130.228 3.35649 130.567 1.95576L121.182 1.95573Z" fill="#E4E4E4"/>
<path d="M210.228 35.9996H183.576C183.276 35.9996 182.988 35.8803 182.776 35.6679C182.564 35.4555 182.445 35.1674 182.445 34.867C182.445 34.5666 182.564 34.2785 182.776 34.0661C182.988 33.8537 183.276 33.7344 183.576 33.7344H210.228C210.377 33.7341 210.524 33.7631 210.661 33.8199C210.799 33.8767 210.924 33.9601 211.029 34.0653C211.134 34.1705 211.218 34.2955 211.275 34.433C211.331 34.5706 211.361 34.7181 211.361 34.867C211.361 35.0159 211.331 35.1634 211.275 35.301C211.218 35.4386 211.134 35.5635 211.029 35.6687C210.924 35.7739 210.799 35.8573 210.661 35.9141C210.524 35.9709 210.377 35.9999 210.228 35.9996Z" fill="#6C63FF"/>
<path d="M210.228 41.0856H183.576C183.276 41.0856 182.988 40.9662 182.776 40.7538C182.564 40.5414 182.445 40.2533 182.445 39.9529C182.445 39.6526 182.564 39.3645 182.776 39.1521C182.988 38.9396 183.276 38.8203 183.576 38.8203H210.228C210.377 38.82 210.524 38.8491 210.661 38.9059C210.799 38.9626 210.924 39.046 211.029 39.1512C211.134 39.2564 211.218 39.3814 211.275 39.519C211.331 39.6565 211.361 39.804 211.361 39.9529C211.361 40.1019 211.331 40.2494 211.275 40.3869C211.218 40.5245 211.134 40.6495 211.029 40.7547C210.924 40.8599 210.799 40.9432 210.661 41C210.524 41.0568 210.377 41.0859 210.228 41.0856Z" fill="#6C63FF"/>
<path d="M210.228 46.1676H183.576C183.276 46.1676 182.988 46.0483 182.776 45.8359C182.564 45.6235 182.445 45.3354 182.445 45.035C182.445 44.7346 182.564 44.4465 182.776 44.2341C182.988 44.0217 183.276 43.9023 183.576 43.9023H210.228C210.377 43.902 210.524 43.9311 210.661 43.9879C210.799 44.0447 210.924 44.128 211.029 44.2333C211.134 44.3385 211.218 44.4634 211.275 44.601C211.331 44.7386 211.361 44.886 211.361 45.035C211.361 45.1839 211.331 45.3314 211.275 45.469C211.218 45.6065 211.134 45.7315 211.029 45.8367C210.924 45.9419 210.799 46.0253 210.661 46.0821C210.524 46.1388 210.377 46.1679 210.228 46.1676Z" fill="#6C63FF"/>
<path d="M75.4224 260.862L79.888 260.861L82.0126 243.602H75.4219L75.4224 260.862Z" fill="#FFB6B6"/>
<path d="M74.2852 259.399L83.0799 259.398H83.0803C84.5667 259.399 85.9922 259.99 87.0432 261.043C88.0943 262.097 88.6848 263.525 88.6849 265.014V265.197L74.2854 265.197L74.2852 259.399Z" fill="#2F2E41"/>
<path d="M57.9648 256.699L62.1773 258.184L69.9 242.61L63.6826 240.418L57.9648 256.699Z" fill="#FFB6B6"/>
<path d="M57.3702 254.941L65.6662 257.867L65.6666 257.867C67.0686 258.361 68.2172 259.394 68.8597 260.737C69.5023 262.08 69.586 263.624 69.0927 265.029L69.0322 265.201L55.4492 260.411L57.3702 254.941Z" fill="#2F2E41"/>
<path d="M55.3092 160.539L52.6055 163.49L63.534 209.074L74.7621 253.527H83.7389L78.5759 211.106V167.478L55.3092 160.539Z" fill="#2F2E41"/>
<path d="M83.2397 164.191L84.423 168.606L78.0997 207.975L69.1205 249.692H58.9531L66.5866 198.541L75.9142 160.891L83.2397 164.191Z" fill="#2F2E41"/>
<path d="M88.831 98.7918L84.8786 91.6822L75.5029 90.1445C70.8295 91.3829 66.646 94.0243 63.5141 97.7141C60.3822 101.404 58.4518 105.965 57.982 110.786L52.8984 162.958C52.8984 162.958 78.9101 174.954 84.4257 168.2L92.096 108.982C92.3994 107.146 92.2614 105.263 91.6936 103.491C91.1258 101.719 90.1444 100.108 88.831 98.7918V98.7918Z" fill="#3F3D56"/>
<path d="M82.1713 87.8322C87.6659 87.8322 92.12 83.369 92.12 77.8633C92.12 72.3577 87.6659 67.8945 82.1713 67.8945C76.6768 67.8945 72.2227 72.3577 72.2227 77.8633C72.2227 83.369 76.6768 87.8322 82.1713 87.8322Z" fill="#FFB6B6"/>
<path d="M95.2392 72.4325C94.6267 72.2608 94.1042 71.8582 93.7812 71.3091C93.5619 70.9417 93.4451 70.5221 93.4431 70.094C93.4411 69.666 93.554 69.2453 93.7699 68.8759C93.3122 68.6379 92.8089 68.5012 92.2939 68.475C91.7789 68.4487 91.2644 68.5336 90.7849 68.7238C91.19 68.3695 91.5054 67.924 91.7053 67.4238C91.9051 66.9236 91.9837 66.3831 91.9345 65.8466C90.7407 66.2515 89.5468 66.6563 88.353 67.0611C88.786 66.7292 89.1055 66.2708 89.2673 65.7491C89.4292 65.2275 89.4254 64.6683 89.2564 64.1489C88.2765 65.5477 86.2471 65.7355 84.5931 65.3183C82.9391 64.9011 81.411 64.0258 79.7258 63.7624C78.7909 63.6163 77.836 63.6641 76.9203 63.903C76.0046 64.1418 75.1476 64.5666 74.4024 65.151C73.6573 65.7353 73.0399 66.4668 72.5884 67.3001C72.137 68.1334 71.8612 69.0507 71.7781 69.9951C71.3434 70.0504 70.9298 70.2155 70.5763 70.4749C70.2227 70.7343 69.9408 71.0796 69.7571 71.4782C69.3987 72.2807 69.2355 73.157 69.2808 74.0351C69.3106 76.1305 69.8199 78.191 70.7696 80.0581C71.7192 81.9253 73.0838 83.5491 74.7583 84.8045L75.3081 84.615C75.2449 83.4819 75.6199 82.368 76.3552 81.5048C77.0905 80.6416 78.1295 80.0955 79.2562 79.9801C80.7155 79.8884 82.4386 80.474 83.4801 79.4457C84.4329 78.5049 84.092 76.8208 84.8696 75.7302C85.546 74.7816 86.8915 74.5604 88.0326 74.7876C89.1738 75.0148 90.2121 75.5939 91.3204 75.9487C92.4287 76.3035 93.7268 76.4034 94.6796 75.7344C95.073 75.4177 95.3911 75.0174 95.611 74.5624C95.831 74.1074 95.9472 73.6091 95.9513 73.1036C95.9624 72.8991 95.9607 72.6942 95.9462 72.49C95.709 72.5028 95.4713 72.4834 95.2392 72.4325V72.4325Z" fill="#2F2E41"/>
<path d="M131.271 165.512H28.8203V195.239H131.271V165.512Z" fill="white"/>
<path d="M132.204 196.172H27.8906V164.578H132.204V196.172ZM29.7534 194.306H130.341V166.445H29.7533L29.7534 194.306Z" fill="#E4E4E4"/>
<path d="M111.371 175.74H48.7228C48.3705 175.74 48.0327 175.6 47.7836 175.35C47.5345 175.101 47.3945 174.762 47.3945 174.409C47.3945 174.056 47.5345 173.718 47.7836 173.468C48.0327 173.218 48.3705 173.078 48.7228 173.078H111.371C111.723 173.078 112.061 173.218 112.31 173.468C112.559 173.718 112.699 174.056 112.699 174.409C112.699 174.762 112.559 175.101 112.31 175.35C112.061 175.6 111.723 175.74 111.371 175.74V175.74Z" fill="#6C63FF"/>
<path d="M111.368 181.709H48.7204C48.3685 181.708 48.0313 181.568 47.7827 181.318C47.5341 181.069 47.3945 180.731 47.3945 180.378C47.3945 180.025 47.5341 179.687 47.7827 179.438C48.0313 179.188 48.3685 179.048 48.7204 179.047H111.368C111.72 179.048 112.058 179.188 112.306 179.438C112.555 179.687 112.694 180.025 112.694 180.378C112.694 180.731 112.555 181.069 112.306 181.318C112.058 181.568 111.72 181.708 111.368 181.709Z" fill="#6C63FF"/>
<path d="M86.0128 187.681H48.7228C48.3705 187.681 48.0327 187.541 47.7836 187.292C47.5345 187.042 47.3945 186.703 47.3945 186.35C47.3945 185.997 47.5345 185.659 47.7836 185.409C48.0327 185.16 48.3705 185.02 48.7228 185.02H86.0128C86.365 185.02 86.7029 185.16 86.952 185.409C87.2011 185.659 87.341 185.997 87.341 186.35C87.341 186.703 87.2011 187.042 86.952 187.292C86.7029 187.541 86.365 187.681 86.0128 187.681Z" fill="#6C63FF"/>
<path d="M89.8906 169.23C89.4924 168.871 89.1775 168.43 88.9681 167.936C88.7588 167.442 88.66 166.908 88.6788 166.372C88.6976 165.835 88.8336 165.31 89.077 164.832C89.3205 164.354 89.6655 163.935 90.0879 163.606L85.8945 151.258L92.44 152.967L95.4186 164.431C95.9246 165.179 96.1392 166.086 96.0219 166.982C95.9046 167.878 95.4634 168.699 94.782 169.291C94.1006 169.882 93.2263 170.203 92.3248 170.192C91.4233 170.181 90.5572 169.838 89.8906 169.23V169.23Z" fill="#FFB6B6"/>
<path d="M86.9912 161L80.2052 135.863L79.611 105.237C79.581 103.984 79.9579 102.754 80.6853 101.734C81.4126 100.714 82.4509 99.9578 83.644 99.5798V99.5798C84.5369 99.2924 85.486 99.2258 86.4101 99.3857C87.3342 99.5456 88.2061 99.9272 88.9511 100.498C89.6961 101.069 90.2923 101.812 90.6886 102.663C91.0849 103.515 91.2697 104.45 91.2271 105.389L90.134 129.486L95.5179 158.251L86.9912 161Z" fill="#3F3D56"/>
<path d="M65.375 169.961C64.9768 169.602 64.6619 169.16 64.4525 168.666C64.2431 168.172 64.1444 167.638 64.1632 167.102C64.182 166.566 64.3179 166.04 64.5614 165.562C64.8048 165.085 65.1499 164.666 65.5723 164.336L61.3789 151.988L67.9244 153.698L70.903 165.161C71.409 165.909 71.6236 166.817 71.5063 167.713C71.3889 168.608 70.9477 169.43 70.2663 170.021C69.5849 170.613 68.7106 170.934 67.8091 170.922C66.9076 170.911 66.0416 170.569 65.375 169.961V169.961Z" fill="#FFB6B6"/>
<path d="M61.446 159.83L58.543 133.983L62.6001 103.59C62.7034 102.817 62.9609 102.072 63.3573 101.4C63.7536 100.728 64.2808 100.142 64.9074 99.6784C65.5341 99.2146 66.2474 98.8818 67.005 98.6997C67.7625 98.5176 68.5489 98.49 69.3173 98.6185C70.0858 98.7471 70.8206 99.0291 71.478 99.4479C72.1355 99.8666 72.7023 100.414 73.1446 101.056C73.5869 101.699 73.8957 102.424 74.0528 103.189C74.2098 103.953 74.2118 104.742 74.0587 105.507L69.3271 129.159L70.2903 158.41L61.446 159.83Z" fill="#3F3D56"/>
<path d="M283.007 250.112H126.172V213.945H283.007V250.112Z" fill="white"/>
<path d="M148.805 225.902C148.4 225.902 148.012 226.064 147.725 226.351C147.438 226.638 147.277 227.027 147.277 227.434C147.277 227.84 147.438 228.229 147.725 228.516C148.012 228.803 148.4 228.965 148.805 228.965H260.377C260.782 228.964 261.17 228.802 261.456 228.515C261.742 228.228 261.903 227.839 261.903 227.434C261.903 227.028 261.742 226.639 261.456 226.352C261.17 226.065 260.782 225.903 260.377 225.902H148.805Z" fill="#E6E6E6"/>
<path d="M148.809 235.09C148.403 235.089 148.014 235.249 147.727 235.536C147.44 235.823 147.278 236.212 147.277 236.618C147.276 237.024 147.437 237.414 147.723 237.702C148.009 237.989 148.397 238.151 148.802 238.152H219.339C219.54 238.153 219.739 238.113 219.925 238.037C220.111 237.96 220.279 237.847 220.422 237.705C220.564 237.563 220.677 237.394 220.753 237.208C220.83 237.022 220.87 236.822 220.87 236.621C220.87 236.42 220.83 236.22 220.753 236.034C220.677 235.849 220.564 235.68 220.422 235.537C220.279 235.395 220.111 235.282 219.925 235.206C219.739 235.129 219.54 235.089 219.339 235.09H148.809Z" fill="#E6E6E6"/>
<path d="M283.007 250.112H126.172V213.945H283.007V250.112ZM128.75 247.529H280.429V216.529H128.75V247.529Z" fill="#E5E5E5"/>
<path d="M35.873 146.093C34.5778 146.093 33.3116 145.708 32.2347 144.987C31.1578 144.266 30.3184 143.241 29.8227 142.042C29.3271 140.843 29.1974 139.523 29.4501 138.251C29.7027 136.978 30.3265 135.808 31.2423 134.891C32.1582 133.973 33.3251 133.348 34.5954 133.095C35.8657 132.842 37.1825 132.972 38.3791 133.468C39.5757 133.965 40.5985 134.806 41.3181 135.885C42.0377 136.964 42.4218 138.233 42.4218 139.531C42.4218 141.271 41.7318 142.94 40.5037 144.171C39.2755 145.401 37.6098 146.093 35.873 146.093Z" fill="#F0F0F0"/>
<path d="M65.7509 53.1053C64.3215 53.1053 62.9241 52.6805 61.7355 51.8847C60.547 51.089 59.6206 49.9579 59.0736 48.6346C58.5266 47.3113 58.3834 45.8551 58.6623 44.4503C58.9412 43.0455 59.6295 41.7551 60.6403 40.7422C61.6511 39.7294 62.9389 39.0397 64.3409 38.7603C65.7429 38.4808 67.1961 38.6242 68.5167 39.1724C69.8374 39.7205 70.9661 40.6487 71.7603 41.8397C72.5545 43.0306 72.9784 44.4308 72.9784 45.8632C72.9784 46.8142 72.7914 47.7559 72.4282 48.6346C72.065 49.5132 71.5326 50.3116 70.8615 50.9841C70.1904 51.6566 69.3936 52.19 68.5167 52.554C67.6399 52.9179 66.7 53.1053 65.7509 53.1053Z" fill="#F0F0F0"/>
<path d="M252.173 104.863C250.943 104.863 249.742 104.498 248.719 103.813C247.697 103.129 246.901 102.156 246.43 101.018C245.96 99.88 245.837 98.6277 246.076 97.4195C246.316 96.2113 246.908 95.1015 247.778 94.2305C248.647 93.3595 249.754 92.7663 250.96 92.5259C252.166 92.2856 253.416 92.4089 254.551 92.8804C255.687 93.3518 256.658 94.1501 257.341 95.1743C258.024 96.1985 258.388 97.4027 258.388 98.6346C258.388 100.286 257.734 101.871 256.568 103.039C255.402 104.207 253.821 104.863 252.173 104.863Z" fill="#F0F0F0"/>
<path d="M212.817 65.1641H117.543V137.255H212.817V65.1641Z" fill="white"/>
<path d="M214.07 138.506H116.301V63.9141H214.07V138.506ZM118.796 136.005H211.575V66.4144H118.796V136.005Z" fill="#E4E4E4"/>
<path d="M211.738 66.6367H119.168L211.738 136.554V66.6367Z" fill="#F0F0F0"/>
<path d="M265.314 265.224C262.541 265.224 259.83 264.4 257.524 262.857C255.219 261.313 253.422 259.119 252.36 256.551C251.299 253.984 251.021 251.159 251.562 248.434C252.103 245.708 253.439 243.205 255.4 241.24C257.361 239.275 259.859 237.937 262.579 237.395C265.299 236.853 268.118 237.131 270.68 238.194C273.242 239.258 275.432 241.059 276.973 243.369C278.513 245.68 279.336 248.396 279.336 251.175C279.336 253.02 278.973 254.847 278.268 256.551C277.564 258.256 276.531 259.805 275.229 261.109C273.927 262.414 272.381 263.449 270.68 264.155C268.979 264.861 267.156 265.224 265.314 265.224Z" fill="#6C63FF"/>
<path d="M270.848 249.794H266.699V245.636C266.699 245.268 266.553 244.916 266.293 244.656C266.034 244.396 265.682 244.25 265.315 244.25C264.949 244.25 264.597 244.396 264.337 244.656C264.078 244.916 263.932 245.268 263.932 245.636V249.794H259.783C259.416 249.794 259.065 249.941 258.807 250.201C258.548 250.46 258.402 250.812 258.402 251.18C258.402 251.547 258.548 251.899 258.807 252.159C259.065 252.418 259.416 252.565 259.783 252.566H263.932V256.723C263.932 257.091 264.078 257.443 264.337 257.703C264.597 257.963 264.949 258.109 265.315 258.109C265.682 258.109 266.034 257.963 266.293 257.703C266.553 257.443 266.698 257.091 266.698 256.723V252.566H270.848C271.03 252.566 271.21 252.53 271.378 252.461C271.546 252.391 271.699 252.289 271.827 252.161C271.956 252.032 272.058 251.879 272.128 251.711C272.198 251.542 272.234 251.362 272.234 251.18C272.234 250.997 272.198 250.817 272.128 250.649C272.058 250.48 271.956 250.327 271.827 250.199C271.699 250.07 271.546 249.968 271.378 249.898C271.21 249.829 271.03 249.793 270.848 249.794V249.794Z" fill="white"/>
<path d="M282.424 266H0.735567C0.581771 266 0.434421 265.938 0.325828 265.829C0.217235 265.72 0.15625 265.572 0.15625 265.418C0.15625 265.264 0.217235 265.116 0.325828 265.007C0.434421 264.898 0.581771 264.836 0.735567 264.836H282.424C282.578 264.836 282.725 264.898 282.834 265.007C282.942 265.116 283.003 265.264 283.003 265.418C283.003 265.572 282.942 265.72 282.834 265.829C282.725 265.938 282.578 266 282.424 266V266Z" fill="#CACACA"/>
<g filter="url(#filter0_d)">
<circle cx="123.825" cy="325.798" r="16.173" fill="#3478DB"/>
</g>
<path d="M128.117 324.722H124.899V321.504C124.899 321.109 124.579 320.789 124.184 320.789H123.469C123.074 320.789 122.754 321.109 122.754 321.504V324.722H119.535C119.141 324.722 118.82 325.043 118.82 325.437V326.153C118.82 326.547 119.141 326.868 119.535 326.868H122.754V330.086C122.754 330.481 123.074 330.801 123.469 330.801H124.184C124.579 330.801 124.899 330.481 124.899 330.086V326.868H128.117C128.512 326.868 128.832 326.547 128.832 326.153V325.437C128.832 325.043 128.512 324.722 128.117 324.722Z" fill="#F9F6F6"/>
<path d="M18.8682 331.026C18.6833 332.984 17.9607 334.513 16.7003 335.614C15.4398 336.707 13.7635 337.253 11.6712 337.253C10.2091 337.253 8.91928 336.908 7.80172 336.219C6.69255 335.522 5.83547 334.534 5.23047 333.257C4.62547 331.98 4.31036 330.497 4.28516 328.808V327.094C4.28516 325.363 4.59186 323.838 5.20526 322.518C5.81866 321.199 6.69675 320.182 7.83953 319.468C8.99071 318.754 10.3183 318.397 11.8224 318.397C13.8475 318.397 15.4776 318.947 16.7129 320.048C17.9481 321.149 18.6665 322.703 18.8682 324.712H15.6919C15.5407 323.392 15.1541 322.443 14.5323 321.863C13.9189 321.275 13.0156 320.981 11.8224 320.981C10.436 320.981 9.36883 321.489 8.62099 322.506C7.88154 323.514 7.50342 324.997 7.48661 326.955V328.581C7.48661 330.564 7.83953 332.077 8.54536 333.119C9.2596 334.16 10.3015 334.681 11.6712 334.681C12.9232 334.681 13.8643 334.4 14.4945 333.837C15.1247 333.274 15.5239 332.337 15.6919 331.026H18.8682Z" fill="white"/>
<path d="M24.6913 337.001H21.6285V317.641H24.6913V337.001Z" fill="white"/>
<path d="M31.2959 337.001H28.2331V323.363H31.2959V337.001ZM28.044 319.821C28.044 319.351 28.191 318.96 28.4851 318.649C28.7876 318.338 29.2162 318.183 29.7708 318.183C30.3253 318.183 30.7539 318.338 31.0564 318.649C31.3589 318.96 31.5101 319.351 31.5101 319.821C31.5101 320.283 31.3589 320.67 31.0564 320.981C30.7539 321.283 30.3253 321.434 29.7708 321.434C29.2162 321.434 28.7876 321.283 28.4851 320.981C28.191 320.67 28.044 320.283 28.044 319.821Z" fill="white"/>
<path d="M40.2448 334.807C41.0095 334.807 41.6439 334.585 42.148 334.139C42.6522 333.694 42.9211 333.144 42.9547 332.488H45.8411C45.8075 333.337 45.5428 334.131 45.047 334.871C44.5512 335.602 43.879 336.181 43.0303 336.61C42.1817 337.038 41.2658 337.253 40.2826 337.253C38.3752 337.253 36.8627 336.635 35.7451 335.4C34.6276 334.165 34.0688 332.459 34.0688 330.283V329.967C34.0688 327.892 34.6234 326.232 35.7325 324.989C36.8417 323.737 38.3542 323.111 40.27 323.111C41.8918 323.111 43.211 323.586 44.2277 324.535C45.2529 325.476 45.7906 326.716 45.8411 328.253H42.9547C42.9211 327.472 42.6522 326.829 42.148 326.325C41.6523 325.821 41.0179 325.569 40.2448 325.569C39.2533 325.569 38.4886 325.93 37.9509 326.653C37.4131 327.367 37.14 328.455 37.1316 329.917V330.409C37.1316 331.888 37.3963 332.992 37.9257 333.724C38.4634 334.446 39.2365 334.807 40.2448 334.807Z" fill="white"/>
<path d="M52.5843 331.152L51.223 332.551V337.001H48.1602V317.641H51.223V328.808L52.181 327.611L55.9496 323.363H59.63L54.5631 329.047L60.172 337.001H56.6302L52.5843 331.152Z" fill="white"/>
<path d="M71.9065 320.048V323.363H74.3139V325.632H71.9065V333.245C71.9065 333.766 72.0073 334.144 72.209 334.379C72.419 334.606 72.7887 334.719 73.3181 334.719C73.671 334.719 74.0282 334.677 74.3895 334.593V336.963C73.6921 337.156 73.0198 337.253 72.3728 337.253C70.02 337.253 68.8437 335.954 68.8437 333.358V325.632H66.6001V323.363H68.8437V320.048H71.9065Z" fill="white"/>
<path d="M79.6832 324.85C80.6832 323.691 81.9478 323.111 83.4771 323.111C86.3844 323.111 87.8591 324.77 87.9011 328.089V337.001H84.8383V328.203C84.8383 327.262 84.6325 326.598 84.2207 326.211C83.8174 325.817 83.2208 325.619 82.4309 325.619C81.2041 325.619 80.2882 326.165 79.6832 327.258V337.001H76.6204V317.641H79.6832V324.85Z" fill="white"/>
<path d="M97.0139 337.253C95.0729 337.253 93.4974 336.643 92.2874 335.425C91.0858 334.198 90.485 332.568 90.485 330.535V330.157C90.485 328.795 90.7455 327.581 91.2664 326.514C91.7958 325.438 92.5353 324.602 93.4848 324.006C94.4343 323.409 95.493 323.111 96.661 323.111C98.518 323.111 99.9507 323.703 100.959 324.888C101.976 326.073 102.484 327.749 102.484 329.917V331.152H93.573C93.6654 332.278 94.0394 333.169 94.6948 333.824C95.3586 334.48 96.1905 334.807 97.1904 334.807C98.5937 334.807 99.7364 334.24 100.619 333.106L102.27 334.681C101.724 335.497 100.993 336.131 100.077 336.585C99.1693 337.03 98.1483 337.253 97.0139 337.253ZM96.6484 325.569C95.8081 325.569 95.1275 325.863 94.6065 326.451C94.094 327.039 93.7663 327.858 93.6234 328.909H99.4591V328.682C99.3919 327.657 99.1188 326.884 98.6399 326.363C98.1609 325.833 97.4971 325.569 96.6484 325.569Z" fill="white"/>
<path d="M16.5364 360.32C16.5364 362.438 16.0616 364.123 15.1121 365.375C14.171 366.627 12.8728 367.253 11.2174 367.253C9.62092 367.253 8.37731 366.677 7.48661 365.526L7.33536 367.001H4.56245V347.641H7.62526V354.674C8.50755 353.632 9.69654 353.111 11.1922 353.111C12.856 353.111 14.1626 353.728 15.1121 354.964C16.0616 356.199 16.5364 357.926 16.5364 360.144V360.32ZM13.4736 360.056C13.4736 358.577 13.2131 357.468 12.6921 356.728C12.1712 355.989 11.4149 355.619 10.4234 355.619C9.09574 355.619 8.16304 356.199 7.62526 357.358V362.98C8.17144 364.165 9.11255 364.757 10.4486 364.757C11.4065 364.757 12.1459 364.4 12.6669 363.686C13.1879 362.971 13.4568 361.892 13.4736 360.446V360.056Z" fill="white"/>
<path d="M27.376 365.665C26.4769 366.723 25.1997 367.253 23.5443 367.253C22.0654 367.253 20.9437 366.82 20.179 365.954C19.4227 365.089 19.0446 363.837 19.0446 362.198V353.363H22.1074V362.161C22.1074 363.892 22.8259 364.757 24.2627 364.757C25.75 364.757 26.7542 364.223 27.2751 363.156V353.363H30.3379V367.001H27.4516L27.376 365.665Z" fill="white"/>
<path d="M37.2954 350.048V353.363H39.7028V355.632H37.2954V363.245C37.2954 363.766 37.3963 364.144 37.5979 364.379C37.808 364.606 38.1777 364.719 38.7071 364.719C39.06 364.719 39.4171 364.677 39.7785 364.593V366.963C39.081 367.156 38.4088 367.253 37.7618 367.253C35.409 367.253 34.2326 365.954 34.2326 363.358V355.632H31.9891V353.363H34.2326V350.048H37.2954Z" fill="white"/>
<path d="M45.8915 350.048V353.363H48.2989V355.632H45.8915V363.245C45.8915 363.766 45.9923 364.144 46.194 364.379C46.4041 364.606 46.7738 364.719 47.3031 364.719C47.6561 364.719 48.0132 364.677 48.3745 364.593V366.963C47.6771 367.156 47.0048 367.253 46.3578 367.253C44.0051 367.253 42.8287 365.954 42.8287 363.358V355.632H40.5851V353.363H42.8287V350.048H45.8915Z" fill="white"/>
<path d="M49.6979 360.056C49.6979 358.72 49.9626 357.518 50.492 356.451C51.0214 355.375 51.765 354.552 52.7229 353.981C53.6809 353.401 54.7816 353.111 56.0252 353.111C57.8654 353.111 59.3569 353.703 60.4997 354.888C61.6509 356.073 62.2727 357.644 62.3651 359.602L62.3777 360.32C62.3777 361.665 62.1172 362.866 61.5963 363.925C61.0837 364.984 60.3442 365.803 59.3779 366.383C58.42 366.963 57.3108 367.253 56.0504 367.253C54.1262 367.253 52.5843 366.614 51.4247 365.337C50.2735 364.051 49.6979 362.341 49.6979 360.207V360.056ZM52.7607 360.32C52.7607 361.724 53.0506 362.824 53.6304 363.623C54.2102 364.413 55.0169 364.807 56.0504 364.807C57.084 364.807 57.8864 364.404 58.4578 363.597C59.0376 362.791 59.3275 361.61 59.3275 360.056C59.3275 358.678 59.0292 357.585 58.4326 356.779C57.8444 355.972 57.042 355.569 56.0252 355.569C55.0253 355.569 54.2312 355.968 53.643 356.766C53.0548 357.556 52.7607 358.741 52.7607 360.32Z" fill="white"/>
<path d="M67.8101 353.363L67.8983 354.938C68.9067 353.72 70.2301 353.111 71.8687 353.111C74.7088 353.111 76.1541 354.737 76.2045 357.989V367.001H73.1417V358.165C73.1417 357.3 72.9526 356.661 72.5745 356.249C72.2048 355.829 71.5956 355.619 70.7469 355.619C69.5117 355.619 68.5916 356.178 67.9866 357.295V367.001H64.9238V353.363H67.8101Z" fill="white"/>
<path d="M89.6027 350.048V353.363H92.0101V355.632H89.6027V363.245C89.6027 363.766 89.7035 364.144 89.9052 364.379C90.1153 364.606 90.485 364.719 91.0144 364.719C91.3673 364.719 91.7244 364.677 92.0857 364.593V366.963C91.3883 367.156 90.7161 367.253 90.0691 367.253C87.7163 367.253 86.5399 365.954 86.5399 363.358V355.632H84.2963V353.363H86.5399V350.048H89.6027Z" fill="white"/>
<path d="M93.4092 360.056C93.4092 358.72 93.6738 357.518 94.2032 356.451C94.7326 355.375 95.4762 354.552 96.4342 353.981C97.3921 353.401 98.4928 353.111 99.7364 353.111C101.577 353.111 103.068 353.703 104.211 354.888C105.362 356.073 105.984 357.644 106.076 359.602L106.089 360.32C106.089 361.665 105.828 362.866 105.307 363.925C104.795 364.984 104.055 365.803 103.089 366.383C102.131 366.963 101.022 367.253 99.7617 367.253C97.8374 367.253 96.2955 366.614 95.1359 365.337C93.9847 364.051 93.4092 362.341 93.4092 360.207V360.056ZM96.472 360.32C96.472 361.724 96.7619 362.824 97.3417 363.623C97.9214 364.413 98.7281 364.807 99.7617 364.807C100.795 364.807 101.598 364.404 102.169 363.597C102.749 362.791 103.039 361.61 103.039 360.056C103.039 358.678 102.74 357.585 102.144 356.779C101.556 355.972 100.753 355.569 99.7364 355.569C98.7365 355.569 97.9424 355.968 97.3543 356.766C96.7661 357.556 96.472 358.741 96.472 360.32Z" fill="white"/>
<path d="M123.256 367.001C123.121 366.74 123.004 366.316 122.903 365.728C121.928 366.744 120.735 367.253 119.323 367.253C117.954 367.253 116.836 366.862 115.971 366.081C115.105 365.299 114.672 364.333 114.672 363.182C114.672 361.728 115.21 360.615 116.286 359.841C117.37 359.06 118.916 358.669 120.924 358.669H122.802V357.774C122.802 357.069 122.605 356.506 122.21 356.085C121.815 355.657 121.214 355.443 120.407 355.443C119.71 355.443 119.138 355.619 118.693 355.972C118.248 356.316 118.025 356.758 118.025 357.295H114.962C114.962 356.548 115.21 355.85 115.706 355.203C116.202 354.548 116.874 354.035 117.723 353.665C118.58 353.296 119.533 353.111 120.584 353.111C122.18 353.111 123.453 353.514 124.403 354.321C125.352 355.119 125.84 356.245 125.865 357.699V363.85C125.865 365.076 126.037 366.055 126.382 366.786V367.001H123.256ZM119.89 364.795C120.495 364.795 121.063 364.648 121.592 364.354C122.13 364.06 122.533 363.665 122.802 363.169V360.598H121.151C120.017 360.598 119.164 360.795 118.592 361.19C118.021 361.585 117.735 362.144 117.735 362.866C117.735 363.455 117.928 363.925 118.315 364.278C118.71 364.623 119.235 364.795 119.89 364.795Z" fill="white"/>
<path d="M128.499 360.081C128.499 357.98 128.986 356.295 129.961 355.027C130.936 353.749 132.243 353.111 133.881 353.111C135.326 353.111 136.494 353.615 137.385 354.623V347.641H140.448V367.001H137.675L137.524 365.589C136.608 366.698 135.385 367.253 133.856 367.253C132.259 367.253 130.965 366.61 129.974 365.324C128.991 364.039 128.499 362.291 128.499 360.081ZM131.562 360.346C131.562 361.732 131.827 362.816 132.356 363.597C132.894 364.371 133.654 364.757 134.637 364.757C135.889 364.757 136.805 364.198 137.385 363.081V357.258C136.822 356.165 135.915 355.619 134.663 355.619C133.671 355.619 132.906 356.014 132.369 356.804C131.831 357.585 131.562 358.766 131.562 360.346Z" fill="white"/>
<path d="M143.07 360.081C143.07 357.98 143.557 356.295 144.532 355.027C145.506 353.749 146.813 353.111 148.452 353.111C149.897 353.111 151.065 353.615 151.955 354.623V347.641H155.018V367.001H152.245L152.094 365.589C151.178 366.698 149.956 367.253 148.426 367.253C146.83 367.253 145.536 366.61 144.544 365.324C143.561 364.039 143.07 362.291 143.07 360.081ZM146.132 360.346C146.132 361.732 146.397 362.816 146.926 363.597C147.464 364.371 148.225 364.757 149.208 364.757C150.46 364.757 151.376 364.198 151.955 363.081V357.258C151.392 356.165 150.485 355.619 149.233 355.619C148.241 355.619 147.477 356.014 146.939 356.804C146.401 357.585 146.132 358.766 146.132 360.346Z" fill="white"/>
<path d="M172.79 367.001C172.656 366.74 172.538 366.316 172.437 365.728C171.463 366.744 170.269 367.253 168.858 367.253C167.488 367.253 166.37 366.862 165.505 366.081C164.639 365.299 164.207 364.333 164.207 363.182C164.207 361.728 164.744 360.615 165.82 359.841C166.904 359.06 168.45 358.669 170.458 358.669H172.336V357.774C172.336 357.069 172.139 356.506 171.744 356.085C171.349 355.657 170.748 355.443 169.942 355.443C169.244 355.443 168.673 355.619 168.227 355.972C167.782 356.316 167.559 356.758 167.559 357.295H164.497C164.497 356.548 164.744 355.85 165.24 355.203C165.736 354.548 166.408 354.035 167.257 353.665C168.114 353.296 169.068 353.111 170.118 353.111C171.715 353.111 172.988 353.514 173.937 354.321C174.887 355.119 175.374 356.245 175.399 357.699V363.85C175.399 365.076 175.571 366.055 175.916 366.786V367.001H172.79ZM169.425 364.795C170.03 364.795 170.597 364.648 171.126 364.354C171.664 364.06 172.067 363.665 172.336 363.169V360.598H170.685C169.551 360.598 168.698 360.795 168.127 361.19C167.555 361.585 167.27 362.144 167.27 362.866C167.27 363.455 167.463 363.925 167.849 364.278C168.244 364.623 168.769 364.795 169.425 364.795Z" fill="white"/>
<path d="M197.003 360.32C197.003 362.438 196.528 364.123 195.578 365.375C194.637 366.627 193.339 367.253 191.684 367.253C190.087 367.253 188.844 366.677 187.953 365.526L187.802 367.001H185.029V347.641H188.092V354.674C188.974 353.632 190.163 353.111 191.659 353.111C193.322 353.111 194.629 353.728 195.578 354.964C196.528 356.199 197.003 357.926 197.003 360.144V360.32ZM193.94 360.056C193.94 358.577 193.679 357.468 193.158 356.728C192.637 355.989 191.881 355.619 190.89 355.619C189.562 355.619 188.629 356.199 188.092 357.358V362.98C188.638 364.165 189.579 364.757 190.915 364.757C191.873 364.757 192.612 364.4 193.133 363.686C193.654 362.971 193.923 361.892 193.94 360.446V360.056Z" fill="white"/>
<path d="M199.007 360.056C199.007 358.72 199.271 357.518 199.801 356.451C200.33 355.375 201.074 354.552 202.032 353.981C202.99 353.401 204.09 353.111 205.334 353.111C207.174 353.111 208.666 353.703 209.809 354.888C210.96 356.073 211.582 357.644 211.674 359.602L211.687 360.32C211.687 361.665 211.426 362.866 210.905 363.925C210.393 364.984 209.653 365.803 208.687 366.383C207.729 366.963 206.62 367.253 205.359 367.253C203.435 367.253 201.893 366.614 200.734 365.337C199.582 364.051 199.007 362.341 199.007 360.207V360.056ZM202.07 360.32C202.07 361.724 202.359 362.824 202.939 363.623C203.519 364.413 204.326 364.807 205.359 364.807C206.393 364.807 207.195 364.404 207.767 363.597C208.346 362.791 208.636 361.61 208.636 360.056C208.636 358.678 208.338 357.585 207.741 356.779C207.153 355.972 206.351 355.569 205.334 355.569C204.334 355.569 203.54 355.968 202.952 356.766C202.364 357.556 202.07 358.741 202.07 360.32Z" fill="white"/>
<path d="M218.115 350.048V353.363H220.522V355.632H218.115V363.245C218.115 363.766 218.216 364.144 218.417 364.379C218.627 364.606 218.997 364.719 219.526 364.719C219.879 364.719 220.236 364.677 220.598 364.593V366.963C219.9 367.156 219.228 367.253 218.581 367.253C216.228 367.253 215.052 365.954 215.052 363.358V355.632H212.808V353.363H215.052V350.048H218.115Z" fill="white"/>
<defs>
<filter id="filter0_d" x="106.112" y="309.625" width="35.4266" height="35.4266" filterUnits="userSpaceOnUse" color-interpolation-filters="sRGB">
<feFlood flood-opacity="0" result="BackgroundImageFix"/>
<feColorMatrix in="SourceAlpha" type="matrix" values="0 0 0 0 0 0 0 0 0 0 0 0 0 0 0 0 0 0 127 0" result="hardAlpha"/>
<feOffset dy="1.54029"/>
<feGaussianBlur stdDeviation="0.770144"/>
<feComposite in2="hardAlpha" operator="out"/>
<feColorMatrix type="matrix" values="0 0 0 0 0 0 0 0 0 0 0 0 0 0 0 0 0 0 0.25 0"/>
<feBlend mode="normal" in2="BackgroundImageFix" result="effect1_dropShadow"/>
<feBlend mode="normal" in="SourceGraphic" in2="effect1_dropShadow" result="shape"/>
</filter>
</defs>
</svg>
