<svg width="251" height="251" viewBox="0 0 251 251" fill="none" xmlns="http://www.w3.org/2000/svg">
<path d="M10.0213 76.2757L76.4831 114.75L56.4696 198.556C63.4292 200.057 71.2076 201.149 79.8049 201.831C88.4021 202.514 96.7946 202.855 104.982 202.855C118.083 202.855 129.205 201.49 138.348 198.761C147.491 195.895 154.928 192.143 160.66 187.503C166.391 182.727 170.553 177.336 173.146 171.332C173.217 171.164 173.287 170.996 173.356 170.828L225.673 201.114C202.762 231.418 166.418 251 125.5 251C56.1883 251 0 194.812 0 125.5C0 108.028 3.57037 91.39 10.0213 76.2757Z" fill="#3478DB"/>
<path d="M233.114 190.108C244.469 171.235 251 149.13 251 125.5C251 56.1883 194.812 0 125.5 0C85.2585 0 49.4408 18.94 26.4746 48.3919C22.5541 53.4197 19.0081 58.7537 15.8785 64.3522L79.696 101.296L89.2209 61.4103C96.9993 59.9092 105.119 58.8857 113.58 58.3398C122.177 57.794 130.024 57.521 137.12 57.521C145.307 57.521 152.335 58.4081 158.203 60.1821C164.208 61.8196 169.052 64.0713 172.737 66.937C176.558 69.8028 179.355 73.2144 181.129 77.1718C183.04 80.9928 183.995 85.0867 183.995 89.4536C183.995 92.4558 183.654 95.5944 182.971 98.8696C182.426 102.145 181.197 105.42 179.287 108.695C177.513 111.834 174.988 114.836 171.713 117.702C168.575 120.567 164.412 123.16 159.227 125.48C165.368 128.209 169.871 131.962 172.737 136.738C175.602 141.378 177.035 146.564 177.035 152.295C177.035 154.039 176.943 155.769 176.76 157.485L233.114 190.108Z" fill="#3478DB"/>
<path d="M93.3148 175.835L102.117 138.99H124.224C127.908 138.99 131.047 139.468 133.64 140.423C136.369 141.378 138.553 142.606 140.19 144.107C141.828 145.608 142.988 147.314 143.67 149.225C144.489 151.135 144.898 153.046 144.898 154.956C144.898 159.459 143.875 163.144 141.828 166.01C139.781 168.875 137.12 171.127 133.845 172.765C130.706 174.402 127.09 175.562 122.996 176.245C119.038 176.79 115.013 177.063 110.919 177.063C108.053 177.063 104.914 176.995 101.503 176.859C98.2275 176.586 95.4982 176.245 93.3148 175.835Z" fill="#3478DB"/>
<path d="M128.113 115.041H108.053L115.422 83.9268C117.059 83.6539 119.516 83.4492 122.791 83.3127C126.066 83.0398 129.137 82.9033 132.002 82.9033C134.595 82.9033 137.12 83.1762 139.576 83.7221C142.032 84.1315 144.216 84.882 146.126 85.9737C148.037 87.0654 149.538 88.5666 150.63 90.477C151.858 92.2511 152.472 94.4345 152.472 97.0273C152.472 101.94 150.425 106.17 146.331 109.718C142.374 113.266 136.301 115.041 128.113 115.041Z" fill="#3478DB"/>
</svg>
